# xmcd CD database file
# Copyright (C) 1993-1998 Ti Kan
#
# Track frame offsets:
#	150
#	15247
#	37287
#	51512
#	68892
#	85165
#	107612
#	118397
#	134860
#	147332
#	167017
#
# Disc length: 2766 seconds
#
# Revision: 1
# Processed by: cddbd v1.4b41PL1 Copyright (c) Steve Scherf et al.
# Submitted via: NotifyCDPlayer(CDDB) 1.51.3
#
DISCID=a50acc0b
DTITLE=Peter Garstenauer Band - Running Hot
DYEAR=1900
DGENRE=
TTITLE0=Here I Am
TTITLE1=Who´s that cat
TTITLE2=Running Hot
TTITLE3=Boogie Woman
TTITLE4=T-Bone Boogie
TTITLE5=Before You Accuse Me
TTITLE6=Get Up
TTITLE7=The World´s got me
TTITLE8=Bump
TTITLE9=Sombody Strange
TTITLE10=To Stevie Ray
EXTD=
EXTT0=
EXTT1=
EXTT2=
EXTT3=
EXTT4=
EXTT5=
EXTT6=
EXTT7=
EXTT8=
EXTT9=
EXTT10=Dedicated to the unforgotable SRV
PLAYORDER=
